<svg xmlns="http://www.w3.org/2000/svg" width="100%" height="100%" viewBox="0 0 3600 96" preserveAspectRatio="xMidYMid slice">
<defs><linearGradient id="bg" x1="0%" y1="0%" x2="100%" y2="0%"><stop offset="0%" stop-color="#0b1518"/><stop offset="45%" stop-color="#102127"/><stop offset="100%" stop-color="#0b1518"/></linearGradient><linearGradient id="line" x1="0%" y1="0%" x2="100%" y2="0%"><stop offset="0%" stop-color="#0b1518"/><stop offset="18%" stop-color="#62c4c8"/><stop offset="82%" stop-color="#62c4c8"/><stop offset="100%" stop-color="#0b1518"/></linearGradient><filter id="softGlow"><feGaussianBlur stdDeviation="2.1" result="b"/><feMerge><feMergeNode in="b"/><feMergeNode in="SourceGraphic"/></feMerge></filter></defs>
<rect width="3600" height="96" rx="20" fill="url(#bg)"/><rect x="120" y="13" width="3360" height="1.2" fill="url(#line)"/><rect x="120" y="83" width="3360" height="1.2" fill="url(#line)"/><polygon points="1800,9 1806,19 1794,19" fill="#62c4c8"/><polygon points="1800,87 1806,77 1794,77" fill="#62c4c8"/><g opacity=".42" transform="translate(330,24)" stroke="#62c4c8" fill="none"><path d="M-8 0 h16 v8 l-4 6 v20 a7 7 0 0 1-7 7h-10a7 7 0 0 1-7-7v-20l4-6v-8h8"/><circle cx="18" cy="24" r="10"/></g><g opacity=".4" transform="translate(3270,24)" stroke="#62c4c8" fill="none"><rect x="-26" y="2" width="52" height="48" rx="4"/><line x1="-14" y1="14" x2="14" y2="14"/><line x1="-14" y1="24" x2="14" y2="24"/><line x1="-14" y1="34" x2="8" y2="34"/></g>
<text x="1800" y="27" text-anchor="middle" font-family="Georgia, 'Times New Roman', serif" font-size="10.5" letter-spacing="4.5" fill="#62c4c8">✦ CONTROL DE STOCK ✦</text><text x="1800" y="53" text-anchor="middle" font-family="Georgia, 'Times New Roman', serif" font-size="28" font-weight="700" fill="#c3e9ea" filter="url(#softGlow)">Bebidas e Inventario</text><text x="1800" y="70" text-anchor="middle" font-family="Georgia, 'Times New Roman', serif" font-size="9.5" letter-spacing="3.2" fill="#62c4c8">Bodega · Rotación · Consumos · Reposición</text></svg>