<svg xmlns="http://www.w3.org/2000/svg" width="100%" height="100%" viewBox="0 0 3600 96" preserveAspectRatio="xMidYMid slice"><defs><linearGradient id="bg" x1="0%" y1="0%" x2="100%" y2="0%"><stop offset="0%" stop-color="#18120b"/><stop offset="45%" stop-color="#261a0f"/><stop offset="100%" stop-color="#18120b"/></linearGradient><linearGradient id="line" x1="0%" y1="0%" x2="100%" y2="0%"><stop offset="0%" stop-color="#18120b"/><stop offset="18%" stop-color="#d3a96d"/><stop offset="82%" stop-color="#d3a96d"/><stop offset="100%" stop-color="#18120b"/></linearGradient><filter id="softGlow"><feGaussianBlur stdDeviation="2.1" result="b"/><feMerge><feMergeNode in="b"/><feMergeNode in="SourceGraphic"/></feMerge></filter></defs><rect width="3600" height="96" rx="20" fill="url(#bg)"/><rect x="120" y="13" width="3360" height="1.2" fill="url(#line)"/><rect x="120" y="83" width="3360" height="1.2" fill="url(#line)"/><polygon points="1800,9 1806,19 1794,19" fill="#d3a96d"/><polygon points="1800,87 1806,77 1794,77" fill="#d3a96d"/><g opacity=".42" transform="translate(330,24)" stroke="#d3a96d" fill="none"><rect x="-24" y="10" width="20" height="18" rx="2"/><rect x="4" y="10" width="20" height="18" rx="2"/><rect x="-10" y="30" width="20" height="18" rx="2"/></g><g opacity=".4" transform="translate(3270,24)" stroke="#d3a96d" fill="none"><rect x="-26" y="2" width="52" height="48" rx="4"/><line x1="-14" y1="14" x2="14" y2="14"/><line x1="-14" y1="24" x2="14" y2="24"/><line x1="-14" y1="34" x2="8" y2="34"/></g><text x="1800" y="27" text-anchor="middle" font-family="Georgia, 'Times New Roman', serif" font-size="10.5" letter-spacing="4.5" fill="#d3a96d">✦ CATEGORÍAS AUXILIARES ✦</text><text x="1800" y="53" text-anchor="middle" font-family="Georgia, 'Times New Roman', serif" font-size="28" font-weight="700" fill="#eedec8" filter="url(#softGlow)">Varios y Productos</text><text x="1800" y="70" text-anchor="middle" font-family="Georgia, 'Times New Roman', serif" font-size="9.5" letter-spacing="3.2" fill="#d3a96d">Amenities · Papelería · Limpieza · Suministros</text></svg>